<!-- icon666.com - MILLIONS vector ICONS FREE --><svg version="1.1" id="Capa_1" xmlns="http://www.w3.org/2000/svg" xmlns:xlink="http://www.w3.org/1999/xlink" x="0px" y="0px" viewBox="0 0 512 512" style="enable-background:new 0 0 512 512;" xml:space="preserve"><path style="fill: rgb(214, 214, 214);" d="M209.814,196.255h242.24c22.033,0,39.895,17.862,39.895,39.895v166.838V512l-75.696-69.119H209.814 c-22.033,0-39.895-17.862-39.895-39.895V236.149C169.919,214.116,187.78,196.255,209.814,196.255z" fill="#4BC999"></path><path style="fill: rgb(102, 102, 102);" d="M302.186,0H59.947C37.914,0,20.052,17.862,20.052,39.895v166.838v109.012l75.696-69.119h206.439 c22.033,0,39.895-17.862,39.895-39.895V39.895C342.081,17.862,324.22,0,302.186,0z" fill="#3DA4D4"></path><g><path style="" d="M291.222,79.107H74.442c-4.338,0-7.855-3.517-7.855-7.855c0-4.338,3.517-7.855,7.855-7.855h216.781 c4.339,0,7.855,3.517,7.855,7.855C299.077,75.59,295.561,79.107,291.222,79.107z" fill="#FFFFFF"></path><path style="" d="M291.222,131.783H74.442c-4.338,0-7.855-3.517-7.855-7.855c0-4.338,3.517-7.855,7.855-7.855h216.781 c4.339,0,7.855,3.517,7.855,7.855C299.077,128.266,295.561,131.783,291.222,131.783z" fill="#FFFFFF"></path><path style="" d="M193.828,184.46H74.442c-4.338,0-7.855-3.517-7.855-7.855c0-4.338,3.517-7.855,7.855-7.855h119.387 c4.338,0,7.855,3.517,7.855,7.855C201.683,180.943,198.165,184.46,193.828,184.46z" fill="#FFFFFF"></path></g><g><path style="" d="M439.324,285.624H222.543c-4.338,0-7.855-3.517-7.855-7.855c0-4.338,3.517-7.855,7.855-7.855 h216.781c4.339,0,7.855,3.517,7.855,7.855C447.179,282.107,443.663,285.624,439.324,285.624z" fill="#536063"></path><path style="" d="M439.324,338.3H222.543c-4.338,0-7.855-3.517-7.855-7.855s3.517-7.855,7.855-7.855h216.781 c4.339,0,7.855,3.517,7.855,7.855S443.663,338.3,439.324,338.3z" fill="#536063"></path><path style="" d="M341.929,390.976H222.543c-4.338,0-7.855-3.517-7.855-7.855s3.517-7.855,7.855-7.855h119.386 c4.339,0,7.855,3.517,7.855,7.855S346.268,390.976,341.929,390.976z" fill="#536063"></path></g></svg>