<!-- icon666.com - MILLIONS vector ICONS FREE --><svg id="Capa_1" enable-background="new 0 0 512 512" viewBox="0 0 512 512" xmlns="http://www.w3.org/2000/svg"><g><path d="m390 191.88v260.12h-310l-80 60v-390h320.12z" fill="#76e2f8" style="fill: rgb(173, 173, 173);"></path><path d="m390 191.88v260.12h-195v-330h125.12z" fill="#73bcff" style="fill: rgb(117, 117, 117);"></path><g><path d="m407 210c-57.897 0-105-47.103-105-105s47.103-105 105-105 105 47.103 105 105-47.103 105-105 105z" fill="#ff8856"></path></g><path d="m407 0v210c57.897 0 105-47.103 105-105s-47.103-105-105-105z" fill="#ff5b5b"></path><path d="m428.21 105 21.22 21.21-21.22 21.22-21.21-21.22-21.21 21.22-21.22-21.22 21.22-21.21-21.22-21.21 21.22-21.22 21.21 21.22 21.21-21.22 21.22 21.22z" fill="#f0f7ff"></path><path d="m428.21 105 21.22 21.21-21.22 21.22-21.21-21.22v-42.42l21.21-21.22 21.22 21.22z" fill="#dfe7f4"></path><g><path d="m240 272h30v30h-30z" fill="#dfe7f4"></path></g><g><path d="m180 272h30v30h-30z" fill="#f0f7ff"></path></g><path d="m195 272h15v30h-15z" fill="#dfe7f4"></path><g><path d="m120 272h30v30h-30z" fill="#f0f7ff"></path></g></g></svg>