<!-- icon666.com - MILLIONS vector ICONS FREE --><svg clip-rule="evenodd" fill-rule="evenodd" stroke-linejoin="round" stroke-miterlimit="2" viewBox="0 0 128 128" xmlns="http://www.w3.org/2000/svg"><path d="m80 117c1.105 0 2-.895 2-2 0-13.434 0-90 0-90 0-1.105-.895-2-2-2-6.828 0-33.172 0-40 0-1.105 0-2 .895-2 2v90c0 1.105.895 2 2 2z" fill="#424243"></path><path d="m57.007 31.491c.086-3.086.95-5.98 2.404-8.491h20.589c1.105 0 2 .895 2 2v90c0 1.105-.895 2-2 2h-40c-.811 0-1.509-.483-1.823-1.177.251.114.53.177.823.177h40c1.105 0 2-.895 2-2v-65.026c-1.877.664-3.896 1.026-6 1.026-5.326 0-10.115-2.318-13.412-6h-17.588c-.265 0-.503-.14-.707-.293-.276-.207-.949-.952-.949-.952l16.625-2.567c-.823-1.605-1.411-3.35-1.72-5.188h-13.249c-.265 0-.503-.14-.707-.293-.276-.207-.949-.952-.949-.952zm20.993 78.509c.471 0 1-.529 1-1v-40c0-.891-1.305-1.719-1.305-1.719l-35.351 41.474s.797 1.245 1.656 1.245zm-3-49c0-1-1.187-1.583-1.187-1.583l-4.42 2.378s.607 1.205 1.607 1.205h3c.552 0 1-.448 1-1 0-.322 0-.678 0-1zm-14-12c3.863 0 7 3.137 7 7s-3.137 7-7 7-7-3.137-7-7 3.137-7 7-7z" fill="#202020"></path><path d="m78 29c0-.265-.105-.52-.293-.707-.187-.188-.442-.293-.707-.293-5.17 0-28.83 0-34 0-.265 0-.52.105-.707.293-.188.187-.293.442-.293.707v4c0 .265.105.52.293.707.187.188.442.293.707.293h34c.265 0 .52-.105.707-.293.188-.187.293-.442.293-.707 0-1.11 0-2.89 0-4z" fill="#767576"></path><path d="m56.11 33c-.073-.657-.11-1.324-.11-2 0-1.022.085-2.025.249-3h20.751c.265 0 .52.105.707.293.188.187.293.442.293.707v4c0 .265-.105.52-.293.707-.187.188-.442.293-.707.293h-34c-.265 0-.52-.105-.707-.293-.188-.187-.293-.442-.293-.707z" fill="#616262"></path><path d="m78 38c0-.265-.105-.52-.293-.707-.187-.188-.442-.293-.707-.293-5.17 0-28.83 0-34 0-.265 0-.52.105-.707.293-.188.187-.293.442-.293.707v4c0 .265.105.52.293.707.187.188.442.293.707.293h34c.265 0 .52-.105.707-.293.188-.187.293-.442.293-.707 0-1.11 0-2.89 0-4z" fill="#767576"></path><path d="m59.755 42c-1.158-1.497-2.086-3.182-2.729-5h19.974c.265 0 .52.105.707.293.188.187.293.442.293.707v4c0 .265-.105.52-.293.707-.187.188-.442.293-.707.293h-34c-.265 0-.52-.105-.707-.293-.188-.187-.293-.442-.293-.707z" fill="#616262"></path><path d="m76 109c.53 0 1.039-.211 1.414-.586s.586-.884.586-1.414c0-8.224 0-39 0-39 0-.552-.448-1-1-1-4.775 0-29.225 0-34 0-.552 0-1 .448-1 1v40c0 .552.448 1 1 1z" fill="#e0e1e0"></path><path d="m77 67v39c0 .53-.211 1.039-.586 1.414s-.884.586-1.414.586h-33c0 .552.448 1 1 1h33c.53 0 1.039-.211 1.414-.586s.586-.884.586-1.414c0-8.224 0-39 0-39 0-.552-.448-1-1-1z" fill="#bdbdbd"></path><circle cx="60" cy="55" fill="#eeefef" r="7"></circle><path d="m64.424 49.576c1.572 1.284 2.576 3.238 2.576 5.424 0 3.863-3.137 7-7 7-2.186 0-4.14-1.004-5.424-2.576 1.207.985 2.747 1.576 4.424 1.576 3.863 0 7-3.137 7-7 0-1.677-.591-3.217-1.576-4.424z" fill="#e0e1e0"></path><path d="m61.49 53.667c.317.354.51.821.51 1.333 0 1.104-.896 2-2 2s-2-.896-2-2c0-.512.193-.979.51-1.333.368-.411.333-1.044-.078-1.412s-1.044-.333-1.412.078c-.634.708-1.02 1.643-1.02 2.667 0 2.208 1.792 4 4 4s4-1.792 4-4c0-1.024-.386-1.959-1.02-2.667-.368-.411-1.001-.446-1.412-.078s-.446 1.001-.078 1.412zm-.49 1.333v-3c0-.552-.448-1-1-1s-1 .448-1 1v3c0 .552.448 1 1 1s1-.448 1-1z" fill="#59c7da"></path><path d="m57.433 58.067c-.582-.695-.933-1.59-.933-2.567 0-1.024.386-1.959 1.02-2.667.298-.333.769-.419 1.156-.245-.055-.123-.137-.237-.244-.333-.411-.368-1.044-.333-1.412.078-.634.708-1.02 1.643-1.02 2.667 0 1.231.557 2.333 1.433 3.067zm1.425-1.425c.362.518.962.858 1.642.858 1.104 0 2-.896 2-2 0-.512-.193-.979-.51-1.333-.368-.411-.333-1.044.078-1.412.325-.291.787-.33 1.149-.132-.074-.1-.153-.197-.237-.29-.368-.411-1.001-.446-1.412-.078s-.446 1.001-.078 1.412c.317.354.51.821.51 1.333 0 1.104-.896 2-2 2-.424 0-.818-.132-1.142-.358zm.73-.73c-.056-.126-.088-.265-.088-.412v-3c0-.552.448-1 1-1 .147 0 .286.032.412.088-.157-.346-.507-.588-.912-.588-.552 0-1 .448-1 1v3c0 .405.242.755.588.912z" fill="#32c2d6"></path><path d="m74 60c0-.552-.448-1-1-1-.871 0-2.129 0-3 0-.552 0-1 .448-1 1v1c0 .552.448 1 1 1h3c.552 0 1-.448 1-1 0-.322 0-.678 0-1z" fill="#eeefef"></path><path d="m73 59v1c0 .552-.448 1-1 1h-3c0 .552.448 1 1 1h3c.552 0 1-.448 1-1 0-.322 0-.678 0-1 0-.552-.448-1-1-1z" fill="#e0e1e0"></path><circle cx="72" cy="29" fill="#e63934" r="18"></circle><path d="m85.754 35.707c1.431-2.581 2.246-5.55 2.246-8.707 0-4.459-1.625-8.541-4.314-11.686 3.864 3.302 6.314 8.21 6.314 13.686 0 9.934-8.066 18-18 18-5.476 0-10.384-2.45-13.686-6.314 3.145 2.689 7.227 4.314 11.686 4.314 3.143 0 6.099-.807 8.671-2.225l-1.854-1.854c-.57-.57-1.425-.741-2.171-.436-3.472 1.424-7.175.989-10.501-2.337-2.797-2.797-4.742-7.114-5.143-11.178-.023-.407.207-.786.58-.952.372-.167.808-.087 1.096.202 1.951 1.927 4.917 4.893 6.447 6.422 2.183 2.184 4.95.708 7.071-1.414 2.121-2.121 3.597-4.888 1.414-7.071-1.533-1.533-4.51-4.51-6.449-6.449-.293-.293-.376-.736-.208-1.114s.552-.614.966-.593c4.072.399 8.378 2.358 11.197 5.176 3.325 3.326 3.761 7.029 2.346 10.505-.303.742-.132 1.593.435 2.159.775.779.984.991 1.857 1.866z" fill="#d52e2f"></path><path d="m80.671 44.775-4.854-4.854c-.57-.57-1.425-.741-2.171-.436-3.472 1.424-7.175.989-10.501-2.337-2.797-2.797-4.742-7.114-5.143-11.178-.023-.407.207-.786.58-.952.372-.167.808-.087 1.096.202 1.951 1.927 4.917 4.893 6.447 6.422 2.183 2.184 4.95.708 7.071-1.414 2.121-2.121 3.597-4.888 1.414-7.071-1.533-1.533-4.51-4.51-6.449-6.449-.293-.293-.376-.736-.208-1.114s.552-.614.966-.593c4.072.399 8.378 2.358 11.197 5.176 3.325 3.326 3.761 7.029 2.346 10.505-.303.742-.132 1.593.435 2.159 1.048 1.053 2.835 2.844 4.857 4.868-1.647 2.97-4.109 5.426-7.083 7.066z" fill="#f6f8f9"></path><path d="m85.756 35.705 1.999 2.001c-1.647 2.971-4.109 5.429-7.084 7.069l-2-2c2.976-1.641 5.438-4.099 7.085-7.07zm-23.102.927c3.192 2.881 6.696 3.205 9.992 1.853.746-.305 1.601-.134 2.171.436l1 1c-.57-.57-1.425-.741-2.171-.436-3.472 1.424-7.175.989-10.501-2.337-.167-.167-.33-.339-.491-.516zm20.243-3.791c1.048 1.053.048.053-1-1-.567-.566-.738-1.417-.435-2.159 1.343-3.301 1.019-6.806-1.866-9.999.179.162.352.327.52.494 3.325 3.326 3.761 7.029 2.346 10.505-.303.742-.132 1.593.435 2.159z" fill="#eeefef"></path></svg>