<!-- icon666.com - MILLIONS vector ICONS FREE --><svg id="Layer_1" enable-background="new 0 0 512 512" viewBox="0 0 512 512" xmlns="http://www.w3.org/2000/svg" xmlns:xlink="http://www.w3.org/1999/xlink"><linearGradient id="SVGID_1_" gradientUnits="userSpaceOnUse" x1="256.003" x2="256.003" y1="512.001" y2=".002"><stop offset="0" stop-color="#009efb"></stop><stop offset="1" stop-color="#68c185"></stop></linearGradient><path clip-rule="evenodd" d="m256.003.002c141.372 0 255.997 114.621 255.997 255.997 0 141.381-114.626 256.002-255.998 256.002s-255.997-114.621-255.997-256.002c0-141.376 114.626-255.997 255.998-255.997zm-149.118 328.457v80.042h298.235v-80.042c0-39.221-31.9-71.135-71.128-71.135h-155.978c-39.194 0-71.129 31.914-71.129 71.135zm82.017-177.841c0 37.008 30.089 67.117 67.121 67.117 36.991 0 67.08-30.109 67.08-67.117 0-37.012-30.089-67.117-67.08-67.117-37.032 0-67.121 30.105-67.121 67.117z" fill="url(#SVGID_1_)" fill-rule="evenodd"></path></svg>